Coordinates
version=1
nRows=14
nColumns=28
inDegrees=yes

Units are S.I. units (second, meters, Newtons, ...)
Angles are in degrees.

endheader
time	pelvis_tilt	pelvis_list	pelvis_rotation	pelvis_tx	pelvis_ty	pelvis_tz	hip_flexion_r	hip_adduction_r	hip_rotation_r	knee_angle_r	ankle_angle_r	subtalar_angle_r	mtp_angle_r	hip_flexion_l	hip_adduction_l	hip_rotation_l	knee_angle_l	socket_flexion	socket_adduction	socket_rotation	socket_tx	socket_ty	socket_tz	foot_flex	lumbar_extension	lumbar_bending	lumbar_rotation
      0.80000000	     -2.54970063	     -5.74237990	      5.75650576	      0.36834947	      0.98178949	      0.25046608	     11.32159225	     11.34852491	      5.50882146	    -22.59203006	      1.28928004	    -23.77596103	      2.71283928	     23.43298925	     -9.60436753	      3.80614937	    -67.58170102	      3.38917709	      0.00000000	      0.00000000	      0.00000000	      0.00691072	      0.00000000	     -1.15770729	     -7.01934443	      4.80412683	    -10.45162752
      0.80416667	     -2.58167526	     -5.41730445	      5.69181846	      0.37365431	      0.98312274	      0.24959335	     10.69822249	     10.95235747	      5.72103242	    -22.13360975	      1.32573263	    -23.61302406	      2.82145091	     24.24236952	     -8.93368690	      4.04137445	    -67.41919798	      3.34373157	      0.00000000	      0.00000000	      0.00000000	      0.00763456	      0.00000000	     -1.20050576	     -7.06280873	      4.53976075	    -10.33219255
      0.80833333	     -2.64630176	     -5.05409008	      5.71110101	      0.37905559	      0.98443818	      0.24851394	     10.10454633	     10.46161002	      5.76592138	    -21.66364601	      1.28479322	    -23.39748098	      2.95242118	     25.00843305	     -8.16265120	      4.37675858	    -67.07508411	      3.34925770	      0.00000000	      0.00000000	      0.00000000	      0.00809869	      0.00000000	     -1.23763582	     -7.04133160	      4.22197904	    -10.15073558
      0.81250000	     -2.69960569	     -4.71767449	      5.71465644	      0.38446143	      0.98571157	      0.24753071	      9.52977435	     10.01031847	      5.75771659	    -21.22928878	      1.23755064	    -23.18048855	      3.07963420	     25.74787385	     -7.45660611	      4.67736364	    -66.69297029	      3.35237128	      0.00000000	      0.00000000	      0.00000000	      0.00859464	      0.00000000	     -1.26525311	     -7.03833742	      3.94103700	     -9.98149470
      0.81666667	     -2.35305095	     -4.09286032	      5.87922314	      0.39048070	      0.98776981	      0.24603020	      8.53398665	      9.07208431	      4.85170434	    -20.87181859	      1.48720129	    -21.50699885	      5.12949296	     25.61403336	     -6.40644830	      5.02028663	    -65.49068661	      3.72086854	      0.00000000	      0.00000000	      0.00000000	      0.00778385	      0.00000000	     -1.21272933	     -7.44505034	      3.41094805	     -9.94232843
      0.82083333	     -2.42393391	     -3.84303571	      5.81010474	      0.39583925	      0.98888017	      0.24537719	      7.98560922	      8.77290103	      5.03033606	    -20.44379444	      1.47413635	    -21.43722866	      5.19224703	     26.39551167	     -5.87740432	      5.26248263	    -65.22464507	      3.52986256	      0.00000000	      0.00000000	      0.00000000	      0.00853463	      0.00000000	     -1.30462188	     -7.41655433	      3.20906695	     -9.79807391
      0.82500000	     -2.48859603	     -3.54258759	      5.87529598	      0.40148688	      0.99008450	      0.24448105	      7.39532172	      8.35794294	      4.88665523	    -19.94512104	      1.19592125	    -21.34350208	      5.47877407	     27.02098979	     -5.23599673	      5.62456614	    -64.61431758	      3.51291894	      0.00000000	      0.00000000	      0.00000000	      0.00886200	      0.00000000	     -1.29977394	     -7.34744620	      2.94282645	     -9.56659604
      0.82916667	     -2.54759880	     -3.32041846	      5.80944113	      0.40689205	      0.99114129	      0.24393637	      6.84698293	      8.09623159	      5.04169526	    -19.52248168	      1.17145150	    -21.26027782	      5.54523252	     27.74372419	     -4.77286115	      5.87501236	    -64.28173537	      3.26925692	      0.00000000	      0.00000000	      0.00000000	      0.00963038	      0.00000000	     -1.32577073	     -7.31793191	      2.75971559	     -9.43377731
      0.83333333	     -2.59723313	     -3.09692285	      5.87360225	      0.41258610	      0.99224037	      0.24310957	      6.23701752	      7.77270934	      4.89809723	    -18.99333313	      0.82570468	    -21.18298212	      5.72203611	     28.30269591	     -4.24763255	      6.25846911	    -63.61717499	      3.18425917	      0.00000000	      0.00000000	      0.00000000	      0.00980674	      0.00000000	     -1.31978824	     -7.26405245	      2.57795222	     -9.18330771
      0.83750000	     -2.64811318	     -2.87973505	      5.80540523	      0.41802464	      0.99322026	      0.24274608	      5.68235440	      7.54246205	      5.06451140	    -18.57568755	      0.82658552	    -21.13397495	      5.78841609	     28.98291279	     -3.83980838	      6.48150233	    -63.25950441	      2.85426080	      0.00000000	      0.00000000	      0.00000000	      0.01075683	      0.00000000	     -1.33725868	     -7.23618374	      2.38988428	     -9.07976146
      0.84166667	     -2.72451509	     -2.70212610	      5.77356428	      0.42357532	      0.99415026	      0.24231665	      5.13935393	      7.33238667	      5.15451467	    -18.11306985	      0.72553268	    -21.08359159	      5.83671406	     29.62729447	     -3.46151535	      6.76615088	    -62.79995334	      2.52443117	      0.00000000	      0.00000000	      0.00000000	      0.01147165	      0.00000000	     -1.34438794	     -7.15773538	      2.23444814	     -8.92389099
      0.84583333	     -2.80166634	     -2.54565128	      5.75612410	      0.42913752	      0.99499262	      0.24189875	      4.60143686	      7.14724072	      5.21857173	    -17.65444127	      0.57504413	    -21.05570658	      5.87245762	     30.25008864	     -3.11467282	      7.06553775	    -62.30066455	      2.18161891	      0.00000000	      0.00000000	      0.00000000	      0.01209836	      0.00000000	     -1.33974416	     -7.08232854	      2.09750302	     -8.75919725
      0.85000000	     -2.77990489	     -2.42850853	      5.85314349	      0.43480455	      0.99599797	      0.24139804	      3.88079238	      7.01202090	      5.16559151	    -17.01509083	     -0.02752946	    -21.33407577	      5.96587354	     30.68311445	     -2.78590073	      7.48340664	    -61.56537449	      1.97297361	      0.00000000	      0.00000000	      0.00000000	      0.01239749	      0.00000000	     -1.30576150	     -7.11332294	      1.98819674	     -8.54036808
      0.85416667	     -2.85402375	     -2.28688244	      5.76447489	      0.44036124	      0.99671037	      0.24123276	      3.38972499	      6.87397923	      5.31876093	    -16.66177283	     -0.02946818	    -21.38197212	      6.00147286	     31.25702913	     -2.53366235	      7.70069674	    -61.10534728	      1.46107941	      0.00000000	      0.00000000	      0.00000000	      0.01309051	      0.00000000	     -1.29740858	     -7.04467009	      1.86257205	     -8.46570106
